<?xml version="1.0" encoding="utf-8"?>
<!-- Generator: Adobe Illustrator 16.0.0, SVG Export Plug-In . SVG Version: 6.00 Build 0)  -->
<!DOCTYPE svg PUBLIC "-//W3C//DTD SVG 1.1//EN" "http://www.w3.org/Graphics/SVG/1.1/DTD/svg11.dtd">
<svg version="1.1" id="圖層_1" xmlns="http://www.w3.org/2000/svg" xmlns:xlink="http://www.w3.org/1999/xlink" x="0px" y="0px"
	 width="141.732px" height="141.732px" viewBox="0 0 141.732 141.732" enable-background="new 0 0 141.732 141.732"
	 xml:space="preserve">
<path fill="#FFF3C1" d="M37.085,113.923c0,0-15.782-34.5-13.141-57c0,0,4.141-42,44.641-40.5c0,0,47.5-2.5,49.5,41c0,0-2,36-15.5,59
	"/>
<path d="M106.897,118.954l-8.624-5.062c12.177-20.747,14.598-53.362,14.805-56.504c-0.542-10.645-4.164-19.085-10.769-25.092
	c-12.908-11.74-33.265-10.892-33.471-10.88l-0.214,0.01L68.4,21.42c-35.209-1.326-39.324,34.481-39.481,36.005
	c-2.454,20.913,12.562,54.086,12.714,54.419l-9.094,4.159c-0.668-1.461-16.333-36.044-13.56-59.663
	c0.037-0.381,1.209-11.637,7.795-22.774C33.01,23.02,45.315,10.637,68.565,11.419c2.726-0.1,25.045-0.499,40.414,13.426
	c8.734,7.913,13.478,18.797,14.101,32.349l0.012,0.253l-0.014,0.253C122.993,59.22,120.85,95.183,106.897,118.954z"/>
<path d="M20.221,135.597c-0.973,0-1.956-0.283-2.819-0.874c-2.279-1.559-2.863-4.671-1.303-6.95
	c0.408-0.597,9.952-14.332,23.329-15.7c2.781-0.815,9.576-0.864,29.63,4.149l0.97,0.286c1.164,0.184,5.801,0.447,15.305-4.314
	l0.363-0.182l0.388-0.121c4.432-1.38,19.318-5.356,26.438,0.909l12.061,9.033c2.21,1.655,2.66,4.789,1.005,6.999
	c-1.655,2.21-4.788,2.661-6.999,1.005l-12.663-9.52c-1.676-1.567-9.613-1.069-16.495,1.007c-13.594,6.722-20.601,5.479-23.159,4.51
	c-16.021-3.987-21.862-4.227-23.543-4.165l-0.3,0.225l-1.502,0.088c-8.868,0.522-16.5,11.329-16.575,11.438
	C23.383,134.836,21.816,135.597,20.221,135.597z"/>
<g>
	<circle cx="52.616" cy="60.404" r="3.75"/>
</g>
<g>
	<path d="M69.421,94.477c-11.016,0-19.103-11.16-19.443-11.636c-0.481-0.674-0.324-1.609,0.35-2.091
		c0.673-0.481,1.609-0.326,2.092,0.348c0.075,0.104,7.543,10.379,17.002,10.379c0.024,0,0.047,0,0.071,0
		c5.477-0.03,10.684-3.518,15.478-10.367c0.476-0.679,1.41-0.844,2.089-0.369c0.679,0.475,0.844,1.41,0.369,2.089
		c-5.388,7.699-11.422,11.618-17.934,11.647C69.47,94.477,69.446,94.477,69.421,94.477z"/>
</g>
<g>
	<circle cx="86.2" cy="60.404" r="3.75"/>
</g>
</svg>
