<?xml version="1.0" encoding="utf-8"?>
<!-- Generator: Adobe Illustrator 16.0.0, SVG Export Plug-In . SVG Version: 6.00 Build 0)  -->
<!DOCTYPE svg PUBLIC "-//W3C//DTD SVG 1.1//EN" "http://www.w3.org/Graphics/SVG/1.1/DTD/svg11.dtd">
<svg version="1.1" id="圖層_1" xmlns="http://www.w3.org/2000/svg" xmlns:xlink="http://www.w3.org/1999/xlink" x="0px" y="0px"
	 width="141.732px" height="141.732px" viewBox="0 0 141.732 141.732" enable-background="new 0 0 141.732 141.732"
	 xml:space="preserve">
<path d="M124.583,121.833l-3.129-2.343c0,0.013,0.002,0.025,0.002,0.038l0.011,0.253l-0.014,0.253
	c-0.026,0.49-0.259,4.575-1.005,10.665c1.874,0.437,3.912-0.229,5.139-1.867C127.243,126.621,126.793,123.488,124.583,121.833z"/>
<path d="M22.043,121.002c-3.595,3.387-5.754,6.494-5.944,6.771c-1.56,2.279-0.976,5.391,1.303,6.95
	c0.863,0.591,1.846,0.874,2.819,0.874c0.85,0,1.689-0.223,2.438-0.64C22.034,130.167,21.763,125.426,22.043,121.002z"/>
<path d="M121.468,119.78l-0.011-0.253c0-0.013-0.002-0.025-0.002-0.038l-5.077-3.802c0.149,1.311,0.258,2.665,0.319,4.069
	c0,0-0.168,3.129-0.728,8.11l2.621,1.97c0.572,0.428,1.207,0.709,1.86,0.862c0.746-6.09,0.979-10.175,1.005-10.665L121.468,119.78z"
	/>
<g>
	<path fill="#FFF3C1" d="M69.058,116.222l0.97,0.286c1.164,0.184,5.801,0.447,15.305-4.314l0.363-0.182l0.388-0.121
		c4.112-1.281,17.219-4.79,24.777-0.287c-1.529-6.896-4.603-12.587-9.2-16.974C89.359,82.89,69.958,83.738,69.763,83.75l-0.205,0.01
		l-0.213-0.007c-25.559-1.01-33.918,19.512-36.521,30.029c2.067-0.853,4.276-1.471,6.604-1.709
		C42.208,111.258,49.003,111.209,69.058,116.222z"/>
	<path d="M69.521,78.756c0,0,42.391-2.339,46.856,36.931l5.077,3.802c-0.601-13.534-5.121-24.405-13.437-32.311
		C93.371,73.253,72.1,73.652,69.502,73.752c-22.159-0.783-33.886,11.6-39.829,22.146c-6.276,11.137-7.394,22.393-7.429,22.774
		c-0.085,0.765-0.151,1.542-0.201,2.329c1.522-1.434,3.301-2.917,5.298-4.257C28.919,107.719,36.664,77.479,69.521,78.756z"/>
	<path d="M69.521,78.756c-32.857-1.277-40.602,28.962-42.18,37.988c1.681-1.129,3.518-2.152,5.483-2.962
		c2.602-10.518,10.961-31.04,36.521-30.029l0.213,0.007l0.205-0.01c0.196-0.012,19.597-0.86,31.898,10.88
		c4.598,4.387,7.671,10.079,9.2,16.974c0.588,0.35,1.146,0.743,1.661,1.196l3.855,2.887C111.912,76.417,69.521,78.756,69.521,78.756
		z"/>
	<path d="M110.861,111.604c-7.558-4.502-20.665-0.994-24.777,0.287l-0.388,0.121l-0.363,0.182
		c-9.504,4.761-14.141,4.498-15.305,4.314l-0.97-0.286c-20.054-5.013-26.849-4.964-29.63-4.149
		c-2.328,0.238-4.536,0.856-6.604,1.709c-0.814,3.291-1.071,5.613-1.107,5.976c-0.224,2-0.293,4.112-0.239,6.296
		c2.71-2.092,5.984-3.868,9.449-4.072l1.502-0.088l0.3-0.225c1.681-0.062,7.521,0.178,23.543,4.165
		c2.558,0.969,9.565,2.212,23.159-4.51c6.881-2.077,14.819-2.574,16.495-1.007l5.597,4.208c0.246-2.494,0.363-4.199,0.401-4.803
		C111.785,116.852,111.425,114.148,110.861,111.604z"/>
	<path d="M24.352,133.42c0.026-0.038,0.981-1.39,2.589-3.15c-0.321-3.841-0.35-7.569,0.035-11.014c0,0,0.089-0.935,0.365-2.512
		c-1.998,1.341-3.776,2.823-5.298,4.257c-0.28,4.424-0.009,9.165,0.616,13.956C23.314,134.593,23.9,134.081,24.352,133.42z"/>
	<path d="M110.861,111.604c0.564,2.544,0.924,5.248,1.063,8.118c-0.038,0.604-0.155,2.31-0.401,4.803l4.445,3.341
		c0.56-4.981,0.728-8.11,0.728-8.11c-0.062-1.404-0.17-2.759-0.319-4.069l-3.855-2.887
		C112.008,112.347,111.449,111.954,110.861,111.604z"/>
	<path d="M31.717,119.758c0.036-0.363,0.292-2.686,1.107-5.976c-1.965,0.811-3.802,1.833-5.483,2.962
		c-0.276,1.577-0.365,2.512-0.365,2.512c-0.385,3.445-0.356,7.173-0.035,11.014c1.19-1.303,2.739-2.828,4.537-4.216
		C31.424,123.87,31.494,121.758,31.717,119.758z"/>
</g>
<g display="none">
	<circle display="inline" cx="52.616" cy="60.404" r="3.75"/>
</g>
<g display="none">
	<path display="inline" d="M69.421,94.477c-11.016,0-19.103-11.16-19.443-11.636c-0.481-0.674-0.324-1.609,0.35-2.091
		c0.673-0.481,1.609-0.326,2.092,0.348c0.075,0.104,7.543,10.379,17.002,10.379c0.024,0,0.047,0,0.071,0
		c5.477-0.03,10.684-3.518,15.478-10.367c0.476-0.679,1.41-0.844,2.089-0.369c0.679,0.475,0.844,1.41,0.369,2.089
		c-5.388,7.699-11.422,11.618-17.934,11.647C69.47,94.477,69.446,94.477,69.421,94.477z"/>
</g>
<g display="none">
	<circle display="inline" cx="86.2" cy="60.404" r="3.75"/>
</g>
<path display="none" fill="#FFF3C1" d="M178.085,127.923c0,0-15.782-34.5-13.141-57c0,0,4.141-42,44.641-40.5c0,0,47.5-2.5,49.5,41
	c0,0-2,36-15.5,59"/>
<path display="none" d="M247.897,132.954l-8.624-5.062c12.177-20.747,14.598-53.362,14.805-56.504
	c-0.542-10.645-4.164-19.085-10.769-25.092c-12.908-11.74-33.265-10.892-33.471-10.88l-0.214,0.01L209.4,35.42
	c-35.209-1.326-39.324,34.481-39.481,36.005c-2.454,20.913,12.562,54.086,12.714,54.419l-9.094,4.159
	c-0.668-1.461-16.333-36.044-13.56-59.663c0.037-0.381,1.209-11.637,7.795-22.774c6.236-10.546,18.542-22.929,41.792-22.146
	c2.726-0.1,25.045-0.499,40.414,13.426c8.734,7.913,13.478,18.797,14.101,32.349l0.012,0.253l-0.014,0.253
	C263.993,73.22,261.85,109.183,247.897,132.954z"/>
</svg>
