<?xml version="1.0" encoding="utf-8"?>
<!-- Generator: Adobe Illustrator 16.0.0, SVG Export Plug-In . SVG Version: 6.00 Build 0)  -->
<!DOCTYPE svg PUBLIC "-//W3C//DTD SVG 1.1//EN" "http://www.w3.org/Graphics/SVG/1.1/DTD/svg11.dtd">
<svg version="1.1" id="圖層_1" xmlns="http://www.w3.org/2000/svg" xmlns:xlink="http://www.w3.org/1999/xlink" x="0px" y="0px"
	 width="256.366px" height="281.699px" viewBox="0 0 256.366 281.699" enable-background="new 0 0 256.366 281.699"
	 xml:space="preserve">
<path d="M124.583,261.799l-3.129-2.343l-5.077-3.802l-3.855-2.887c-0.514-0.453-1.073-0.846-1.661-1.196
	c-7.558-4.502-20.665-0.994-24.777,0.287l-0.388,0.121l-0.363,0.182c-9.504,4.761-14.141,4.498-15.305,4.314l-0.97-0.286
	c-20.054-5.013-26.849-4.964-29.63-4.149c-2.328,0.238-4.536,0.856-6.604,1.709c-1.965,0.811-3.802,1.833-5.483,2.962
	c-1.998,1.341-3.776,2.823-5.298,4.257c-3.595,3.387-5.754,6.494-5.944,6.771c-1.56,2.279-0.976,5.391,1.303,6.95
	c0.863,0.591,1.846,0.874,2.819,0.874c0.85,0,1.689-0.223,2.438-0.64c0.655-0.365,1.241-0.876,1.693-1.538
	c0.026-0.038,0.981-1.39,2.589-3.15c1.19-1.303,2.739-2.828,4.537-4.216c2.71-2.092,5.984-3.868,9.449-4.072l1.502-0.088l0.3-0.225
	c1.681-0.062,7.521,0.178,23.543,4.165c2.558,0.969,9.565,2.212,23.159-4.51c6.881-2.077,14.819-2.574,16.495-1.007l5.597,4.208
	l4.445,3.341l2.621,1.97c0.572,0.428,1.207,0.709,1.86,0.862c1.874,0.437,3.912-0.229,5.139-1.867
	C127.243,266.587,126.793,263.454,124.583,261.799z"/>
<g display="none">
	<circle display="inline" cx="52.616" cy="200.37" r="3.75"/>
</g>
<g display="none">
	<path display="inline" d="M69.421,234.443c-11.016,0-19.103-11.16-19.443-11.636c-0.481-0.674-0.324-1.609,0.35-2.091
		c0.673-0.481,1.609-0.326,2.092,0.348c0.075,0.104,7.543,10.379,17.002,10.379c0.024,0,0.047,0,0.071,0
		c5.477-0.03,10.684-3.518,15.478-10.367c0.476-0.679,1.41-0.844,2.089-0.369c0.679,0.475,0.844,1.41,0.369,2.089
		c-5.388,7.699-11.422,11.618-17.934,11.647C69.47,234.443,69.446,234.443,69.421,234.443z"/>
</g>
<g display="none">
	<circle display="inline" cx="86.2" cy="200.37" r="3.75"/>
</g>
<path display="none" fill="#FFF3C1" d="M178.085,267.89c0,0-15.782-34.5-13.141-57c0,0,4.141-42,44.641-40.5c0,0,47.5-2.5,49.5,41
	c0,0-2,36-15.5,59"/>
<path display="none" d="M247.897,272.92l-8.624-5.062c12.177-20.747,14.598-53.362,14.805-56.504
	c-0.542-10.645-4.164-19.085-10.769-25.092c-12.908-11.74-33.265-10.892-33.471-10.88l-0.214,0.01l-0.224-0.007
	c-35.209-1.326-39.324,34.481-39.481,36.005c-2.454,20.913,12.562,54.086,12.714,54.419l-9.094,4.159
	c-0.668-1.461-16.333-36.044-13.56-59.663c0.037-0.381,1.209-11.637,7.795-22.774c6.236-10.546,18.542-22.929,41.792-22.146
	c2.726-0.1,25.045-0.499,40.414,13.426c8.734,7.913,13.478,18.797,14.101,32.349l0.012,0.253l-0.014,0.253
	C263.993,213.187,261.85,249.149,247.897,272.92z"/>
<path fill="#FFF3C1" stroke="#000000" stroke-width="10" stroke-miterlimit="10" d="M71.752,245.059
	c0,0-29.841-63.057-19.604-93.285c0,0,5.937-18.655,32.347-23.385c0,0,27.023-3.755,36.236,6.483c0,0,25.181,16.251,1.842,54.929
	L71.752,245.059z"/>
<line fill="none" stroke="#000000" stroke-width="3" stroke-linecap="round" stroke-linejoin="round" stroke-miterlimit="10" x1="73.339" y1="153.236" x2="85.839" y2="163.285"/>
<line fill="none" stroke="#000000" stroke-width="3" stroke-linecap="round" stroke-linejoin="round" stroke-miterlimit="10" x1="85.839" y1="163.285" x2="69.839" y2="167.442"/>
<line fill="none" stroke="#000000" stroke-width="3" stroke-linecap="round" stroke-linejoin="round" stroke-miterlimit="10" x1="111.61" y1="160.775" x2="96.064" y2="164.716"/>
<line fill="none" stroke="#000000" stroke-width="3" stroke-linecap="round" stroke-linejoin="round" stroke-miterlimit="10" x1="96.064" y1="164.716" x2="108.887" y2="175.15"/>
<g>
	<path fill="#BD9757" d="M138.373,34.729c0,0-64.752-21.323-51.629,29.798"/>
	<g>
		<path fill="#BD9757" d="M113.007,31.921c6.631-8.448-6.958-21.375,47.602-20.556c54.56,0.819,71.744,26.499,84.278,53.602
			c12.534,27.104-29.764,59.501-39.347,68.694c-9.582,9.194-66.843,27.273-79.719,17.018
			c-12.875-10.256,32.124-46.066,32.124-46.066l-5.611-11.142c-14.567-15.897-47.172-7.563-47.172-7.563
			c-36.051,4.64-31.426,37.726-31.426,37.726c-8.668,25.956-23.442,8.479-23.442,8.479C18.408,68.833,126.98,45.588,126.98,45.588"
			/>
		<path d="M136.66,156.927c-5.287-0.238-9.911-1.309-12.936-3.717c-2.319-1.847-3.546-4.426-3.548-7.458
			c-0.013-13.274,25.58-35.393,33.618-42.012l-4.236-8.409c-13.185-13.783-43.247-6.342-43.552-6.265l-0.404,0.078
			c-10.128,1.303-17.717,5.116-22.558,11.331c-7.698,9.884-6.025,22.595-6.008,22.722l0.104,0.744l-0.238,0.713
			c-3.243,9.711-7.886,15.188-13.8,16.282c-8.271,1.528-15.085-6.405-15.372-6.745l-0.249-0.295l-0.172-0.343
			c-7.605-15.093-8.229-29.34-1.853-42.345c17.062-34.802,78.212-48.252,80.806-48.808l1.435,6.376
			c-0.604,0.129-60.59,13.333-76.24,45.275c-5.389,10.998-4.837,23.19,1.637,36.246c1.48,1.607,5.326,4.872,8.778,4.221
			c3.148-0.592,6.146-4.579,8.476-11.252c-0.306-3.338-0.843-16.174,7.398-26.757c5.919-7.601,14.928-12.248,26.777-13.812
			c3.163-0.776,35.009-8.078,50.287,8.597l0.307,0.334l6.991,13.878l-2.06,1.64c-12.844,10.226-33.221,29.751-33.212,38.611
			c0.001,1.071,0.325,1.786,1.084,2.39c4.577,3.646,19.552,2.922,38.148-1.842c18.142-4.649,33.404-11.395,37.141-14.979
			c1.181-1.134,2.826-2.594,4.732-4.285c13.155-11.673,43.961-39.009,33.914-60.733c-11.892-25.711-27.956-50.876-81.292-51.682
			c-39.284-0.59-40.591,5.634-41.855,11.651c-0.501,2.391-8.343,3.648-8.343,3.648c1.055-1.344,1.409-3.027,1.818-4.975
			c2.156-10.26,6.894-17.475,48.471-16.851c57.196,0.853,75.052,29.11,87.266,55.523c12.053,26.06-21.272,55.631-35.502,68.259
			c-1.854,1.646-3.455,3.066-4.544,4.111c-5.927,5.687-24.663,12.668-40.108,16.625C159.44,154.755,146.829,157.383,136.66,156.927z
			"/>
	</g>
	<path d="M82.684,63.39c-3.663-14.268-1.887-24.794,5.277-31.286c15.26-13.829,49.2-2.869,50.637-2.396l-2.11,6.187
		c-8.759-2.876-33.74-8.301-44.005,1.009c-5.238,4.751-6.362,13.131-3.34,24.905L82.684,63.39z"/>
</g>
</svg>
