<?xml version="1.0" encoding="utf-8"?>
<!-- Generator: Adobe Illustrator 16.0.0, SVG Export Plug-In . SVG Version: 6.00 Build 0)  -->
<!DOCTYPE svg PUBLIC "-//W3C//DTD SVG 1.1//EN" "http://www.w3.org/Graphics/SVG/1.1/DTD/svg11.dtd">
<svg version="1.1" id="圖層_1" xmlns="http://www.w3.org/2000/svg" xmlns:xlink="http://www.w3.org/1999/xlink" x="0px" y="0px"
	 width="141.732px" height="141.732px" viewBox="0 0 141.732 141.732" enable-background="new 0 0 141.732 141.732"
	 xml:space="preserve">
<path d="M124.583,121.833l-3.129-2.343l-5.077-3.802l-3.855-2.887c-0.514-0.453-1.073-0.846-1.661-1.196
	c-7.558-4.502-20.665-0.994-24.777,0.287l-0.388,0.121l-0.363,0.182c-9.504,4.761-14.141,4.498-15.305,4.314l-0.97-0.286
	c-20.054-5.013-26.849-4.964-29.63-4.149c-2.328,0.238-4.536,0.856-6.604,1.709c-1.965,0.811-3.802,1.833-5.483,2.962
	c-1.998,1.341-3.776,2.823-5.298,4.257c-3.595,3.387-5.754,6.494-5.944,6.771c-1.56,2.279-0.976,5.391,1.303,6.95
	c0.863,0.591,1.846,0.874,2.819,0.874c0.85,0,1.689-0.223,2.438-0.64c0.655-0.365,1.241-0.876,1.693-1.538
	c0.026-0.038,0.981-1.39,2.589-3.15c1.19-1.303,2.739-2.828,4.537-4.216c2.71-2.092,5.984-3.868,9.449-4.072l1.502-0.088l0.3-0.225
	c1.681-0.062,7.521,0.178,23.543,4.165c2.558,0.969,9.565,2.212,23.159-4.51c6.881-2.077,14.819-2.574,16.495-1.007l5.597,4.208
	l4.445,3.341l2.621,1.97c0.572,0.428,1.207,0.709,1.86,0.862c1.874,0.437,3.912-0.229,5.139-1.867
	C127.243,126.621,126.793,123.488,124.583,121.833z"/>
<g display="none">
	<circle display="inline" cx="52.616" cy="60.404" r="3.75"/>
</g>
<g display="none">
	<path display="inline" d="M69.421,94.477c-11.016,0-19.103-11.16-19.443-11.636c-0.481-0.674-0.324-1.609,0.35-2.091
		c0.673-0.481,1.609-0.326,2.092,0.348c0.075,0.104,7.543,10.379,17.002,10.379c0.024,0,0.047,0,0.071,0
		c5.477-0.03,10.684-3.518,15.478-10.367c0.476-0.679,1.41-0.844,2.089-0.369c0.679,0.475,0.844,1.41,0.369,2.089
		c-5.388,7.699-11.422,11.618-17.934,11.647C69.47,94.477,69.446,94.477,69.421,94.477z"/>
</g>
<g display="none">
	<circle display="inline" cx="86.2" cy="60.404" r="3.75"/>
</g>
<path display="none" fill="#FFF3C1" d="M178.085,127.923c0,0-15.782-34.5-13.141-57c0,0,4.141-42,44.641-40.5c0,0,47.5-2.5,49.5,41
	c0,0-2,36-15.5,59"/>
<path display="none" d="M247.897,132.954l-8.624-5.062c12.177-20.747,14.598-53.362,14.805-56.504
	c-0.542-10.645-4.164-19.085-10.769-25.092c-12.908-11.74-33.265-10.892-33.471-10.88l-0.214,0.01L209.4,35.42
	c-35.209-1.326-39.324,34.481-39.481,36.005c-2.454,20.913,12.562,54.086,12.714,54.419l-9.094,4.159
	c-0.668-1.461-16.333-36.044-13.56-59.663c0.037-0.381,1.209-11.637,7.795-22.774c6.236-10.546,18.542-22.929,41.792-22.146
	c2.726-0.1,25.045-0.499,40.414,13.426c8.734,7.913,13.478,18.797,14.101,32.349l0.012,0.253l-0.014,0.253
	C263.993,73.22,261.85,109.183,247.897,132.954z"/>
</svg>
